<?xml version="1.0" encoding="UTF-8"?>
<svg xmlns="http://www.w3.org/2000/svg" xmlns:xlink="http://www.w3.org/1999/xlink" width="128px" height="128px" viewBox="0 0 128 128" version="1.1">
<defs>
<linearGradient id="linear0" gradientUnits="userSpaceOnUse" x1="-597.3553" y1="900.6861" x2="-598.0993" y2="900.0601" gradientTransform="matrix(124.16,0,0,-124.16,74277.92,111854.24)">
<stop offset="0" style="stop-color:rgb(71.372549%,31.372549%,61.960784%);stop-opacity:1;"/>
<stop offset="1" style="stop-color:rgb(18.039216%,72.941176%,77.647059%);stop-opacity:1;"/>
</linearGradient>
</defs>
<g id="surface1">
<path style=" stroke:none;fill-rule:nonzero;fill:url(#linear0);" d="M 126.078125 64 C 126.078125 98.285156 98.285156 126.078125 64 126.078125 C 29.714844 126.078125 1.921875 98.285156 1.921875 64 C 1.921875 29.714844 29.714844 1.921875 64 1.921875 C 98.285156 1.921875 126.078125 29.714844 126.078125 64 Z M 126.078125 64 "/>
<path style=" stroke:none;fill-rule:nonzero;fill:rgb(100%,100%,100%);fill-opacity:1;" d="M 91.167969 88.734375 L 70.175781 37.984375 C 68.992188 35.359375 67.230469 34.078125 64.910156 34.078125 L 63.054688 34.078125 C 60.734375 34.078125 58.976562 35.359375 57.792969 37.984375 L 48.65625 60.097656 L 41.742188 60.097656 C 39.679688 60.113281 38 61.777344 37.984375 63.855469 L 37.984375 63.902344 C 38 65.96875 39.679688 67.648438 41.742188 67.664062 L 45.457031 67.664062 L 36.734375 88.734375 C 36.574219 89.199219 36.480469 89.679688 36.480469 90.175781 C 36.480469 91.359375 36.847656 92.289062 37.503906 93.007812 C 38.160156 93.726562 39.105469 94.078125 40.289062 94.078125 C 41.070312 94.0625 41.824219 93.824219 42.449219 93.359375 C 43.121094 92.894531 43.585938 92.222656 43.953125 91.457031 L 53.550781 67.648438 L 60.207031 67.648438 C 62.273438 67.632812 63.953125 65.96875 63.96875 63.886719 L 63.96875 63.792969 C 63.953125 61.726562 62.273438 60.046875 60.207031 60.03125 L 56.65625 60.03125 L 63.984375 41.777344 L 83.953125 91.441406 C 84.320312 92.207031 84.785156 92.878906 85.457031 93.34375 C 86.078125 93.808594 86.847656 94.046875 87.617188 94.0625 C 88.800781 94.0625 89.726562 93.710938 90.398438 92.992188 C 91.070312 92.273438 91.425781 91.34375 91.425781 90.160156 C 91.441406 89.679688 91.359375 89.183594 91.167969 88.734375 Z M 91.167969 88.734375 "/>
</g>
</svg>
